<?xml version="1.0" standalone="no"?><!DOCTYPE svg PUBLIC "-//W3C//DTD SVG 1.1//EN" "http://www.w3.org/Graphics/SVG/1.1/DTD/svg11.dtd"><svg t="1568345566153" class="icon" viewBox="0 0 1024 1024" version="1.1" xmlns="http://www.w3.org/2000/svg" p-id="2094" width="81" height="81" xmlns:xlink="http://www.w3.org/1999/xlink"><defs><style type="text/css"></style></defs><path d="M1016 160H8v-16c0-8.796 7.204-16 16-16h976c8.796 0 16 7.204 16 16v16z" fill="#94C1FF" p-id="2095"></path><path d="M984 144c0-8.796-7.204-16-16-16h32c8.796 0 16 7.204 16 16v752h-32V144z" fill="#5C9EFF" p-id="2096"></path><path d="M8 159.992h1008V896H8z" fill="#FFFFFF" p-id="2097"></path><path d="M56 128H24c-8.796 0-16 7.204-16 16v16h32v-16c0-8.796 7.204-16 16-16zM88 736h496v32H88z" fill="#D7E9FF" p-id="2098"></path><path d="M584 736h352v32H584z" fill="#94C1FF" p-id="2099"></path><path d="M56 208h912v528H56z" fill="#D7E9FF" p-id="2100"></path><path d="M728 448l240-240v528H344l335.782-336.204z" fill="#94C1FF" p-id="2101"></path><path d="M760 448l208-208v-32L744 432zM679.782 399.796L344 736h32l319.796-320.196z" fill="#D7E9FF" p-id="2102"></path><path d="M632 472c0 66.282-53.718 120-120 120-66.274 0-120-53.718-120-120 0-66.274 53.726-120 120-120 66.282 0 120 53.726 120 120z" fill="#FFFFFF" p-id="2103"></path><path d="M480 424l80 48-80 48z" fill="#D7E9FF" p-id="2104"></path><path d="M616 272h64c8.796 0 16 7.204 16 16s-7.204 16-16 16h-96c-17.594 0-32-14.398-32-32s14.406-32 32-32c17.75 0 32 14.398 32 32zM56 208v67.546c8.508 7.656 19.648 12.454 32 12.454 26.516 0 48-21.484 48-48 0-12.352-4.796-23.492-12.454-32H56zM600 752c0 8.844-7.156 16-16 16s-16-7.156-16-16 7.156-16 16-16 16 7.156 16 16z" fill="#FFFFFF" p-id="2105"></path><path d="M56 736h32v32H56zM936 736h32v32h-32zM280 816c8.796 0 16 7.204 16 16s-7.204 16-16 16H72c-8.796 0-16-7.204-16-16s7.204-16 16-16h208z" fill="#94C1FF" p-id="2106"></path><path d="M40.476 152c-4.414 0-8.078-3.578-8.078-8s3.5-8 7.922-8h0.156c4.422 0 8 3.578 8 8s-3.578 8-8 8zM72.476 152c-4.414 0-8.078-3.578-8.078-8s3.5-8 7.922-8h0.156c4.422 0 8 3.578 8 8s-3.578 8-8 8zM104.476 152c-4.414 0-8.078-3.578-8.078-8s3.5-8 7.922-8h0.156c4.422 0 8 3.578 8 8s-3.578 8-8 8z" fill="#116FFF" p-id="2107"></path><path d="M1016 168H8c-4.422 0-8-3.578-8-8v-16c0-13.234 10.766-24 24-24h976c13.234 0 24 10.766 24 24v16c0 4.422-3.578 8-8 8zM16 152h992v-8c0-4.414-3.594-8-8-8H24c-4.414 0-8 3.586-8 8v8z" fill="#116FFF" p-id="2108"></path><path d="M1016 904H8c-4.422 0-8-3.578-8-8V160c0-4.422 3.578-8 8-8h1008c4.422 0 8 3.578 8 8v736c0 4.422-3.578 8-8 8zM16 888h992V168H16v720z" fill="#116FFF" p-id="2109"></path><path d="M968 776H56c-4.422 0-8-3.578-8-8V208c0-4.422 3.578-8 8-8h912c4.422 0 8 3.578 8 8v560c0 4.422-3.578 8-8 8z m-904-16h896V216H64v544z" fill="#116FFF" p-id="2110"></path><path d="M968 744H56c-4.422 0-8-3.578-8-8s3.578-8 8-8h912c4.422 0 8 3.578 8 8s-3.578 8-8 8z" fill="#116FFF" p-id="2111"></path><path d="M88 776c-4.422 0-8-3.578-8-8v-32c0-4.422 3.578-8 8-8s8 3.578 8 8v32c0 4.422-3.578 8-8 8zM936 776c-4.422 0-8-3.578-8-8v-32c0-4.422 3.578-8 8-8s8 3.578 8 8v32c0 4.422-3.578 8-8 8zM584 776c-13.234 0-24-10.766-24-24s10.766-24 24-24 24 10.766 24 24-10.766 24-24 24z m0-32c-4.406 0-8 3.594-8 8s3.594 8 8 8 8-3.594 8-8-3.594-8-8-8zM512 600c-70.578 0-128-57.422-128-128s57.422-128 128-128 128 57.422 128 128-57.422 128-128 128z m0-240c-61.758 0-112 50.242-112 112 0 61.75 50.242 112 112 112 61.75 0 112-50.25 112-112 0-61.758-50.25-112-112-112z" fill="#116FFF" p-id="2112"></path><path d="M480 528a7.994 7.994 0 0 1-8-8v-96a7.994 7.994 0 0 1 12.116-6.858l80.008 48c2.406 1.446 3.876 4.046 3.876 6.86s-1.468 5.414-3.876 6.86l-80.008 48A8.03 8.03 0 0 1 480 528z m8-89.868v67.734L544.454 472 488 438.132zM88 296c-4.422 0-8-3.578-8-8s3.578-8 8-8c22.054 0 40-17.946 40-40 0-4.422 3.578-8 8-8s8 3.578 8 8c0 30.876-25.124 56-56 56zM88 408c-4.422 0-8-3.578-8-8v-80c0-4.422 3.578-8 8-8s8 3.578 8 8v80c0 4.422-3.578 8-8 8zM168.008 386.562a7.994 7.994 0 0 1-6.938-4l-40-69.282A8 8 0 0 1 124 302.35c3.796-2.226 8.704-0.914 10.93 2.93l40 69.282a8 8 0 0 1-6.922 12zM226.554 328a7.96 7.96 0 0 1-3.992-1.07l-69.282-40A8 8 0 0 1 150.35 276a7.988 7.988 0 0 1 10.93-2.93l69.282 40a8 8 0 0 1-4.008 14.93zM248 248H168c-4.422 0-8-3.578-8-8s3.578-8 8-8h80c4.422 0 8 3.578 8 8s-3.578 8-8 8zM728 456a8 8 0 0 1-5.656-13.656l208-208a8 8 0 1 1 11.312 11.312l-208 208A7.976 7.976 0 0 1 728 456z" fill="#116FFF" p-id="2113"></path><path d="M728 456a7.976 7.976 0 0 1-5.656-2.344l-48.218-48.204a8 8 0 1 1 11.312-11.312l48.218 48.204A8 8 0 0 1 728 456zM375.578 712a8 8 0 0 1-5.656-13.656l94.29-94.296a8 8 0 1 1 11.312 11.312l-94.29 94.296a7.976 7.976 0 0 1-5.656 2.344z" fill="#116FFF" p-id="2114"></path><path d="M649.704 437.86a8 8 0 0 1-5.656-13.656l30.078-30.062a8 8 0 1 1 11.312 11.312l-30.078 30.062a7.98 7.98 0 0 1-5.656 2.344zM136 712c-4.422 0-8-3.578-8-8v-96c0-4.422 3.578-8 8-8s8 3.578 8 8v96c0 4.422-3.578 8-8 8z" fill="#116FFF" p-id="2115"></path><path d="M152 632a7.976 7.976 0 0 1-5.656-2.344l-16-16a8 8 0 1 1 11.312-11.312l16 16A8 8 0 0 1 152 632z" fill="#116FFF" p-id="2116"></path><path d="M120 632a8 8 0 0 1-5.656-13.656l16-16a8 8 0 1 1 11.312 11.312l-16 16A7.976 7.976 0 0 1 120 632zM152 664a7.976 7.976 0 0 1-5.656-2.344l-16-16a8 8 0 1 1 11.312-11.312l16 16A8 8 0 0 1 152 664z" fill="#116FFF" p-id="2117"></path><path d="M120 664a8 8 0 0 1-5.656-13.656l16-16a8 8 0 1 1 11.312 11.312l-16 16A7.976 7.976 0 0 1 120 664zM264 712c-4.422 0-8-3.578-8-8v-96c0-4.422 3.578-8 8-8s8 3.578 8 8v96c0 4.422-3.578 8-8 8z" fill="#116FFF" p-id="2118"></path><path d="M280 632a7.976 7.976 0 0 1-5.656-2.344l-16-16a8 8 0 1 1 11.312-11.312l16 16A8 8 0 0 1 280 632z" fill="#116FFF" p-id="2119"></path><path d="M248 632a8 8 0 0 1-5.656-13.656l16-16a8 8 0 1 1 11.312 11.312l-16 16A7.976 7.976 0 0 1 248 632zM280 664a7.976 7.976 0 0 1-5.656-2.344l-16-16a8 8 0 1 1 11.312-11.312l16 16A8 8 0 0 1 280 664z" fill="#116FFF" p-id="2120"></path><path d="M248 664a8 8 0 0 1-5.656-13.656l16-16a8 8 0 1 1 11.312 11.312l-16 16A7.976 7.976 0 0 1 248 664zM200 712c-4.422 0-8-3.578-8-8v-128c0-4.422 3.578-8 8-8s8 3.578 8 8v128c0 4.422-3.578 8-8 8z" fill="#116FFF" p-id="2121"></path><path d="M216 600a7.976 7.976 0 0 1-5.656-2.344l-16-16a8 8 0 1 1 11.312-11.312l16 16A8 8 0 0 1 216 600z" fill="#116FFF" p-id="2122"></path><path d="M184 600a8 8 0 0 1-5.656-13.656l16-16a8 8 0 1 1 11.312 11.312l-16 16A7.976 7.976 0 0 1 184 600zM216 632a7.976 7.976 0 0 1-5.656-2.344l-16-16a8 8 0 1 1 11.312-11.312l16 16A8 8 0 0 1 216 632z" fill="#116FFF" p-id="2123"></path><path d="M184 632a8 8 0 0 1-5.656-13.656l16-16a8 8 0 1 1 11.312 11.312l-16 16A7.976 7.976 0 0 1 184 632zM216 664a7.976 7.976 0 0 1-5.656-2.344l-16-16a8 8 0 1 1 11.312-11.312l16 16A8 8 0 0 1 216 664z" fill="#116FFF" p-id="2124"></path><path d="M184 664a8 8 0 0 1-5.656-13.656l16-16a8 8 0 1 1 11.312 11.312l-16 16A7.976 7.976 0 0 1 184 664z" fill="#116FFF" p-id="2125"></path><path d="M680 312c-4.422 0-8-3.578-8-8s3.578-8 8-8c4.406 0 8-3.586 8-8s-3.594-8-8-8c-4.422 0-8-3.578-8-8s3.578-8 8-8c13.234 0 24 10.766 24 24s-10.766 24-24 24z" fill="#116FFF" p-id="2126"></path><path d="M680 311.984h-96c-4.422 0-8-3.578-8-8s3.578-8 8-8h96c4.422 0 8 3.578 8 8s-3.578 8-8 8z" fill="#116FFF" p-id="2127"></path><path d="M680 280h-64c-4.422 0-8-3.578-8-8s3.578-8 8-8h64c4.422 0 8 3.578 8 8s-3.578 8-8 8z" fill="#116FFF" p-id="2128"></path><path d="M584 312c-22.062 0-40-17.946-40-40s17.938-40 40-40 40 17.946 40 40c0 4.422-3.578 8-8 8s-8-3.578-8-8c0-13.234-10.766-24-24-24s-24 10.766-24 24 10.766 24 24 24c4.422 0 8 3.578 8 8s-3.578 8-8 8z" fill="#116FFF" p-id="2129"></path><path d="M72 856c-13.234 0-24-10.766-24-24s10.766-24 24-24c4.422 0 8 3.578 8 8s-3.578 8-8 8c-4.414 0-8 3.594-8 8s3.586 8 8 8c4.422 0 8 3.578 8 8s-3.578 8-8 8z" fill="#116FFF" p-id="2130"></path><path d="M280 856c-4.422 0-8-3.578-8-8s3.578-8 8-8c4.414 0 8-3.594 8-8s-3.586-8-8-8c-4.422 0-8-3.578-8-8s3.578-8 8-8c13.234 0 24 10.766 24 24s-10.766 24-24 24z" fill="#116FFF" p-id="2131"></path><path d="M280 824H72c-4.422 0-8-3.578-8-8s3.578-8 8-8h208c4.422 0 8 3.578 8 8s-3.578 8-8 8z" fill="#116FFF" p-id="2132"></path><path d="M280 856H72c-4.422 0-8-3.578-8-8s3.578-8 8-8h208c4.422 0 8 3.578 8 8s-3.578 8-8 8z" fill="#116FFF" p-id="2133"></path><path d="M796.688 851.312a8 8 0 0 1-5.656-13.656l22.624-22.624a8 8 0 1 1 11.312 11.312l-22.624 22.624a7.968 7.968 0 0 1-5.656 2.344z" fill="#116FFF" p-id="2134"></path><path d="M819.312 851.312a7.976 7.976 0 0 1-5.656-2.344l-22.624-22.624a8 8 0 1 1 11.312-11.312l22.624 22.624a8 8 0 0 1-5.656 13.656z" fill="#116FFF" p-id="2135"></path><path d="M748.688 851.312a8 8 0 0 1-5.656-13.656l22.624-22.624a8 8 0 1 1 11.312 11.312l-22.624 22.624a7.968 7.968 0 0 1-5.656 2.344z" fill="#116FFF" p-id="2136"></path><path d="M771.312 851.312a7.976 7.976 0 0 1-5.656-2.344l-22.624-22.624a8 8 0 1 1 11.312-11.312l22.624 22.624a8 8 0 0 1-5.656 13.656z" fill="#116FFF" p-id="2137"></path><path d="M844.688 851.312a8 8 0 0 1-5.656-13.656l22.624-22.624a8 8 0 1 1 11.312 11.312l-22.624 22.624a7.968 7.968 0 0 1-5.656 2.344z" fill="#116FFF" p-id="2138"></path><path d="M867.312 851.312a7.976 7.976 0 0 1-5.656-2.344l-22.624-22.624a8 8 0 1 1 11.312-11.312l22.624 22.624a8 8 0 0 1-5.656 13.656z" fill="#116FFF" p-id="2139"></path><path d="M892.688 851.312a8 8 0 0 1-5.656-13.656l22.624-22.624a8 8 0 1 1 11.312 11.312l-22.624 22.624a7.968 7.968 0 0 1-5.656 2.344z" fill="#116FFF" p-id="2140"></path><path d="M915.312 851.312a7.976 7.976 0 0 1-5.656-2.344l-22.624-22.624a8 8 0 1 1 11.312-11.312l22.624 22.624a8 8 0 0 1-5.656 13.656z" fill="#116FFF" p-id="2141"></path><path d="M940.688 851.312a8 8 0 0 1-5.656-13.656l22.624-22.624a8 8 0 1 1 11.312 11.312l-22.624 22.624a7.968 7.968 0 0 1-5.656 2.344z" fill="#116FFF" p-id="2142"></path><path d="M963.312 851.312a7.976 7.976 0 0 1-5.656-2.344l-22.624-22.624a8 8 0 1 1 11.312-11.312l22.624 22.624a8 8 0 0 1-5.656 13.656z" fill="#116FFF" p-id="2143"></path></svg>