<?xml version="1.0" standalone="no"?><!DOCTYPE svg PUBLIC "-//W3C//DTD SVG 1.1//EN" "http://www.w3.org/Graphics/SVG/1.1/DTD/svg11.dtd"><svg t="1568345625380" class="icon" viewBox="0 0 1024 1024" version="1.1" xmlns="http://www.w3.org/2000/svg" p-id="3892" width="81" height="81" xmlns:xlink="http://www.w3.org/1999/xlink"><defs><style type="text/css"></style></defs><path d="M599.214542 3.338085L936.332836 343.568153V904.903917c0 65.743301-36.266313 119.067794-102.631969 119.067794H207.951379c-66.365656 0-120.171059-53.324493-120.17106-119.096083V122.434168C87.780319 56.634289 141.585723 3.338085 207.951379 3.338085h391.263163z" fill="#FF40B6" p-id="3893"></path><path d="M385.633681 431.885961v282.831979a72.44776 72.44776 0 0 0-34.908448-8.826123c-38.472844 0-69.562296 29.646721-69.562296 66.2525s31.117741 66.280789 69.590585 66.280789c38.472844 0 69.562296-29.67501 69.562297-66.280789a57.143489 57.143489 0 0 0-0.480911-7.807724 9.759655 9.759655 0 0 0 0.480911-3.196641v-232.675838l243.708492-41.018841v160.991878a72.560915 72.560915 0 0 0-34.880159-8.826123c-38.472844 0-69.590585 29.67501-69.590586 66.280789s31.117741 66.2525 69.590586 66.2525c38.472844 0 69.562296-29.646721 69.562296-66.2525 0-2.659152-0.113155-5.403171-0.452622-7.836013a9.731366 9.731366 0 0 0 0.452622-3.196641V385.463948c0-5.403171 0-12.135919-9.589922-10.806343-1.98022 0.226311-291.940991 46.195701-291.940991 46.195702a11.258965 11.258965 0 0 0-11.541854 11.032654z" fill="#FFFFFF" p-id="3894"></path><path d="M936.332836 343.568153h-199.549588c-66.365656 0-137.568705-62.659815-137.568706-128.431405V0L936.332836 343.568153z" fill="#000000" fill-opacity=".176" p-id="3895"></path></svg>