<?xml version="1.0" standalone="no"?><!DOCTYPE svg PUBLIC "-//W3C//DTD SVG 1.1//EN" "http://www.w3.org/Graphics/SVG/1.1/DTD/svg11.dtd"><svg t="1568728304624" class="icon" viewBox="0 0 1024 1024" version="1.1" xmlns="http://www.w3.org/2000/svg" p-id="2091" width="40" height="40" xmlns:xlink="http://www.w3.org/1999/xlink"><defs><style type="text/css"></style></defs><path d="M762.4 933.6c-5.4 0-10.7-1.7-15.4-4.5L512 770.3 277 929.1c-9.6 6.2-22.3 6.2-31.7-0.6-9.5-7.3-13.6-19.1-10.6-30.4l78.6-291.7L77.6 420.6c-9.4-7.3-13.1-19.7-9.2-31 3.9-11.3 14.4-19.1 26.3-19.1h287.1l104.3-264.1c8.4-21.4 43.2-21.4 51.6 0L642 370.5h287.1c11.9 0 22.4 7.9 26.3 19.1 3.8 11.3 0.2 23.7-9.2 31L710.6 606.4l78.6 291.7c3.1 11.3-1.1 23.1-10.6 30.4-4.8 3.4-10.5 5.1-16.2 5.1zM512 708.3c5.4 0 10.7 1.7 15.4 4.5L716 840.1 652.1 603c-2.9-10.7 0.9-22.5 9.7-29.3l186.4-147H623.3c-11.3 0-21.6-6.8-25.8-17.5L512 193.1l-85.5 216.2c-4.2 10.7-14.5 17.5-25.8 17.5H175.8l186.4 147c8.8 6.8 12.7 18.6 9.7 29.3l-63.9 237 188.6-127.3c4.7-2.8 10-4.5 15.4-4.5z" fill="#EB666B" p-id="2092"></path></svg>